# xmcd
#
# Track frame offsets:
#	150
#	18454
#	36725
#	53772
#	68923
#	87554
#	101786
#	120092
#	138365
#	155414
#	170566
#	189199
#
# Disc length: 2712 seconds
#
# Revision: 1
# Processed by: cddbd v1.5.2PL0 Copyright (c) Steve Scherf et al.
# Submitted via: audiograbber 1.83.01
#
DISCID=a00a960c
DTITLE=Various Artist - CB20032 Hot Hits Vol. 32
DYEAR=1900
DGENRE=Country
TTITLE0=Kevin Sharp - Love Is All That Really Matters (Vocals)
TTITLE1=Sammy Kershaw - Matches (Vocals)
TTITLE2=Terri Clark - Now That I Found You (Vocals)
TTITLE3=Hal Ketchum - I Saw The Light (Vocals)
TTITLE4=John Michael Montgomery - Love Working On  You (Vocals)
TTITLE5=Dixie Chicks - There's Your Trouble
TTITLE6=Kevin Sharp - Love Is All That Really Matters
TTITLE7=Sammy Kershaw - Matchers
TTITLE8=Terri Clark - Now That I Found You
TTITLE9=Hal Ketchum - I Saw The Light
TTITLE10=John Michael Montgomery - Love Working On You
TTITLE11=Dixie Chicks - There's Your Trouble
EXTD=
EXTT0=
EXTT1=
EXTT2=
EXTT3=
EXTT4=
EXTT5=
EXTT6=
EXTT7=
EXTT8=
EXTT9=
EXTT10=
EXTT11=
PLAYORDER=
